<svg width="197" height="51" viewBox="0 0 197 51" fill="none" xmlns="http://www.w3.org/2000/svg">
<path d="M12.9191 38.336C10.5831 38.336 8.47106 37.936 6.58306 37.136C4.72706 36.336 3.25506 35.184 2.16706 33.68C1.07906 32.176 0.519063 30.4 0.487063 28.352H7.68706C7.78306 29.728 8.26306 30.816 9.12706 31.616C10.0231 32.416 11.2391 32.816 12.7751 32.816C14.3431 32.816 15.5751 32.448 16.4711 31.712C17.3671 30.944 17.8151 29.952 17.8151 28.736C17.8151 27.744 17.5111 26.928 16.9031 26.288C16.2951 25.648 15.5271 25.152 14.5991 24.8C13.7031 24.416 12.4551 24 10.8551 23.552C8.67906 22.912 6.90306 22.288 5.52706 21.68C4.18306 21.04 3.01506 20.096 2.02306 18.848C1.06306 17.568 0.583063 15.872 0.583063 13.76C0.583063 11.776 1.07906 10.048 2.07106 8.576C3.06306 7.104 4.45506 5.984 6.24706 5.216C8.03906 4.416 10.0871 4.016 12.3911 4.016C15.8471 4.016 18.6471 4.864 20.7911 6.56C22.9671 8.224 24.1671 10.56 24.3911 13.568H16.9991C16.9351 12.416 16.4391 11.472 15.5111 10.736C14.6151 9.968 13.4151 9.584 11.9111 9.584C10.5991 9.584 9.54306 9.92 8.74306 10.592C7.97506 11.264 7.59106 12.24 7.59106 13.52C7.59106 14.416 7.87906 15.168 8.45506 15.776C9.06306 16.352 9.79906 16.832 10.6631 17.216C11.5591 17.568 12.8071 17.984 14.4071 18.464C16.5831 19.104 18.3591 19.744 19.7351 20.384C21.1111 21.024 22.2951 21.984 23.2871 23.264C24.2791 24.544 24.7751 26.224 24.7751 28.304C24.7751 30.096 24.3111 31.76 23.3831 33.296C22.4551 34.832 21.0951 36.064 19.3031 36.992C17.5111 37.888 15.3831 38.336 12.9191 38.336ZM45.5771 11.024C47.5931 11.024 49.3851 11.472 50.9531 12.368C52.5211 13.232 53.7371 14.528 54.6011 16.256C55.4971 17.952 55.9451 20 55.9451 22.4V38H49.2251V23.312C49.2251 21.2 48.6971 19.584 47.6411 18.464C46.5851 17.312 45.1451 16.736 43.3211 16.736C41.4651 16.736 39.9931 17.312 38.9051 18.464C37.8491 19.584 37.3211 21.2 37.3211 23.312V38H30.6011V2.48H37.3211V14.72C38.1851 13.568 39.3371 12.672 40.7771 12.032C42.2171 11.36 43.8171 11.024 45.5771 11.024ZM74.1434 38.432C71.5834 38.432 69.2794 37.872 67.2314 36.752C65.1834 35.6 63.5674 33.984 62.3834 31.904C61.2314 29.824 60.6554 27.424 60.6554 24.704C60.6554 21.984 61.2474 19.584 62.4314 17.504C63.6474 15.424 65.2954 13.824 67.3754 12.704C69.4554 11.552 71.7754 10.976 74.3354 10.976C76.8954 10.976 79.2154 11.552 81.2954 12.704C83.3754 13.824 85.0074 15.424 86.1914 17.504C87.4074 19.584 88.0154 21.984 88.0154 24.704C88.0154 27.424 87.3914 29.824 86.1434 31.904C84.9274 33.984 83.2634 35.6 81.1514 36.752C79.0714 37.872 76.7354 38.432 74.1434 38.432ZM74.1434 32.576C75.3594 32.576 76.4954 32.288 77.5514 31.712C78.6394 31.104 79.5034 30.208 80.1434 29.024C80.7834 27.84 81.1034 26.4 81.1034 24.704C81.1034 22.176 80.4314 20.24 79.0874 18.896C77.7754 17.52 76.1594 16.832 74.2394 16.832C72.3194 16.832 70.7034 17.52 69.3914 18.896C68.1114 20.24 67.4714 22.176 67.4714 24.704C67.4714 27.232 68.0954 29.184 69.3434 30.56C70.6234 31.904 72.2234 32.576 74.1434 32.576ZM99.6648 15.248C100.529 14.032 101.713 13.024 103.217 12.224C104.753 11.392 106.497 10.976 108.449 10.976C110.721 10.976 112.769 11.536 114.593 12.656C116.449 13.776 117.905 15.376 118.961 17.456C120.049 19.504 120.593 21.888 120.593 24.608C120.593 27.328 120.049 29.744 118.961 31.856C117.905 33.936 116.449 35.552 114.593 36.704C112.769 37.856 110.721 38.432 108.449 38.432C106.497 38.432 104.769 38.032 103.265 37.232C101.793 36.432 100.593 35.424 99.6648 34.208V50.672H92.9448V11.408H99.6648V15.248ZM113.729 24.608C113.729 23.008 113.393 21.632 112.721 20.48C112.081 19.296 111.217 18.4 110.129 17.792C109.073 17.184 107.921 16.88 106.673 16.88C105.457 16.88 104.305 17.2 103.217 17.84C102.161 18.448 101.297 19.344 100.625 20.528C99.9848 21.712 99.6648 23.104 99.6648 24.704C99.6648 26.304 99.9848 27.696 100.625 28.88C101.297 30.064 102.161 30.976 103.217 31.616C104.305 32.224 105.457 32.528 106.673 32.528C107.921 32.528 109.073 32.208 110.129 31.568C111.217 30.928 112.081 30.016 112.721 28.832C113.393 27.648 113.729 26.24 113.729 24.608Z" fill="#5D4037"/>
<path d="M137.668 16.928H133.012V38H126.196V16.928H123.172V11.408H126.196V10.064C126.196 6.8 127.124 4.4 128.98 2.864C130.836 1.328 133.636 0.607999 137.38 0.704V6.368C135.748 6.336 134.612 6.608 133.972 7.184C133.332 7.76 133.012 8.8 133.012 10.304V11.408H137.668V16.928ZM166.743 24.128C166.743 25.088 166.679 25.952 166.551 26.72H147.111C147.271 28.64 147.943 30.144 149.127 31.232C150.311 32.32 151.767 32.864 153.495 32.864C155.991 32.864 157.767 31.792 158.823 29.648H166.071C165.303 32.208 163.831 34.32 161.655 35.984C159.479 37.616 156.807 38.432 153.639 38.432C151.079 38.432 148.775 37.872 146.727 36.752C144.711 35.6 143.127 33.984 141.975 31.904C140.855 29.824 140.295 27.424 140.295 24.704C140.295 21.952 140.855 19.536 141.975 17.456C143.095 15.376 144.663 13.776 146.679 12.656C148.695 11.536 151.015 10.976 153.639 10.976C156.167 10.976 158.423 11.52 160.407 12.608C162.423 13.696 163.975 15.248 165.063 17.264C166.183 19.248 166.743 21.536 166.743 24.128ZM159.783 22.208C159.751 20.48 159.127 19.104 157.911 18.08C156.695 17.024 155.207 16.496 153.447 16.496C151.783 16.496 150.375 17.008 149.223 18.032C148.103 19.024 147.415 20.416 147.159 22.208H159.783ZM196.368 24.128C196.368 25.088 196.304 25.952 196.176 26.72H176.736C176.896 28.64 177.568 30.144 178.752 31.232C179.936 32.32 181.392 32.864 183.12 32.864C185.616 32.864 187.392 31.792 188.448 29.648H195.696C194.928 32.208 193.456 34.32 191.28 35.984C189.104 37.616 186.432 38.432 183.264 38.432C180.704 38.432 178.4 37.872 176.352 36.752C174.336 35.6 172.752 33.984 171.6 31.904C170.48 29.824 169.92 27.424 169.92 24.704C169.92 21.952 170.48 19.536 171.6 17.456C172.72 15.376 174.288 13.776 176.304 12.656C178.32 11.536 180.64 10.976 183.264 10.976C185.792 10.976 188.048 11.52 190.032 12.608C192.048 13.696 193.6 15.248 194.688 17.264C195.808 19.248 196.368 21.536 196.368 24.128ZM189.408 22.208C189.376 20.48 188.752 19.104 187.536 18.08C186.32 17.024 184.832 16.496 183.072 16.496C181.408 16.496 180 17.008 178.848 18.032C177.728 19.024 177.04 20.416 176.784 22.208H189.408Z" fill="#8D6E63"/>
</svg>
