<svg width="300" height="299" viewBox="0 0 300 299" fill="none" xmlns="http://www.w3.org/2000/svg">
<path d="M158.668 254.108C216.658 254.108 263.668 209.088 263.668 153.554C263.668 98.0196 216.658 53 158.668 53C100.678 53 53.668 98.0196 53.668 153.554C53.668 209.088 100.678 254.108 158.668 254.108Z" fill="#F4E4D6"/>
<path d="M185.028 73.6896L131.405 92.9393C129.294 93.6976 127.365 94.8902 125.743 96.4401C124.121 97.9901 122.842 99.8629 121.989 101.938L74.5836 217.289C73.7777 219.249 73.3683 221.349 73.3791 223.468C73.3898 225.587 73.8205 227.683 74.6462 229.635C75.4718 231.586 76.6762 233.355 78.1895 234.838C79.7029 236.321 81.4953 237.49 83.463 238.276L165.461 271.055C167.418 271.839 169.511 272.228 171.62 272.201C173.728 272.174 175.81 271.732 177.748 270.9C179.685 270.067 181.439 268.861 182.909 267.349C184.379 265.838 185.537 264.052 186.316 262.092L232.237 146.609C233.089 144.477 233.473 142.188 233.364 139.895C233.254 137.602 232.653 135.36 231.602 133.319L204.72 81.4197C202.933 77.9624 199.951 75.2723 196.328 73.8502C192.706 72.4281 188.69 72.371 185.028 73.6896ZM191.388 98.9727C193.269 100.791 194.568 103.127 195.121 105.684C195.675 108.241 195.457 110.904 194.497 113.338C193.536 115.771 191.875 117.865 189.725 119.355C187.574 120.844 185.03 121.663 182.414 121.706C179.798 121.75 177.228 121.017 175.029 119.6C172.83 118.183 171.1 116.145 170.059 113.745C169.018 111.345 168.712 108.69 169.179 106.116C169.647 103.542 170.867 101.165 172.686 99.2845C175.123 96.7686 178.459 95.322 181.961 95.2619C185.463 95.2019 188.846 96.5333 191.367 98.9642L191.388 98.9727Z" fill="#5D4037"/>
<g opacity="0.4">
<path d="M185.028 73.6896L131.405 92.9393C129.294 93.6976 127.365 94.8902 125.743 96.4401C124.121 97.9901 122.842 99.8629 121.989 101.938L74.5836 217.289C73.7777 219.249 73.3683 221.349 73.3791 223.468C73.3898 225.587 73.8205 227.683 74.6462 229.635C75.4718 231.586 76.6762 233.355 78.1895 234.838C79.7029 236.321 81.4953 237.49 83.463 238.276L165.461 271.055C167.418 271.839 169.511 272.228 171.62 272.201C173.728 272.174 175.81 271.732 177.748 270.9C179.685 270.067 181.439 268.861 182.909 267.349C184.379 265.838 185.537 264.052 186.316 262.092L232.237 146.609C233.089 144.477 233.473 142.188 233.364 139.895C233.254 137.602 232.653 135.36 231.602 133.319L204.72 81.4197C202.933 77.9624 199.951 75.2723 196.328 73.8502C192.706 72.4281 188.69 72.371 185.028 73.6896ZM191.388 98.9727C193.269 100.791 194.568 103.127 195.121 105.684C195.675 108.241 195.457 110.904 194.497 113.338C193.536 115.771 191.875 117.865 189.725 119.355C187.574 120.844 185.03 121.663 182.414 121.706C179.798 121.75 177.228 121.017 175.029 119.6C172.83 118.183 171.1 116.145 170.059 113.745C169.018 111.345 168.712 108.69 169.179 106.116C169.647 103.542 170.867 101.165 172.686 99.2845C175.123 96.7686 178.459 95.322 181.961 95.2619C185.463 95.2019 188.846 96.5333 191.367 98.9642L191.388 98.9727Z" fill="black"/>
</g>
<path d="M187.479 67.6017L133.85 86.8672C131.739 87.6261 129.81 88.8189 128.188 90.3688C126.566 91.9187 125.287 93.7912 124.434 95.8656L77.0288 211.217C76.2221 213.177 75.8121 215.277 75.8225 217.397C75.8328 219.516 76.2634 221.612 77.0891 223.564C77.9149 225.515 79.1195 227.284 80.6333 228.767C82.1471 230.25 83.94 231.419 85.9082 232.204L167.903 264.989C169.865 265.773 171.963 266.162 174.076 266.133C176.189 266.104 178.275 265.657 180.215 264.82C182.155 263.982 183.91 262.769 185.38 261.251C186.85 259.733 188.005 257.939 188.78 255.973L234.698 140.494C235.55 138.363 235.933 136.074 235.824 133.781C235.714 131.488 235.114 129.246 234.064 127.205L207.179 75.3107C205.389 71.8544 202.404 69.1667 198.78 67.7483C195.156 66.33 191.139 66.2779 187.479 67.6017ZM193.841 92.8795C195.722 94.6982 197.021 97.0337 197.574 99.5907C198.128 102.148 197.91 104.811 196.949 107.245C195.989 109.678 194.328 111.772 192.177 113.262C190.027 114.751 187.483 115.57 184.867 115.613C182.251 115.657 179.681 114.924 177.482 113.507C175.283 112.09 173.553 110.052 172.512 107.652C171.471 105.252 171.164 102.597 171.632 100.023C172.1 97.4492 173.32 95.0717 175.139 93.1913C177.576 90.6754 180.911 89.2288 184.414 89.1687C187.916 89.1087 191.299 90.4401 193.82 92.871L193.841 92.8795Z" fill="#5D4037"/>
<path d="M129.049 204.834C119.155 200.747 115.362 192.11 118.9 183.563C122.438 175.016 131.098 171.623 141.071 175.742C151.045 179.861 154.789 188.393 151.258 196.937C147.727 205.48 138.941 208.926 129.049 204.834ZM137.609 184.13C131.308 181.526 127.297 182.711 125.774 186.403C124.282 190.004 126.341 193.804 132.548 196.369C138.755 198.935 142.891 197.697 144.384 194.096C145.907 190.403 143.895 186.727 137.609 184.13ZM134.033 148.888L138.159 138.911L180.255 203.231L176.129 213.207L134.033 148.888ZM173.234 176.377C163.342 172.285 159.547 163.653 163.048 155.183C166.586 146.636 175.368 143.201 185.257 147.285C195.146 151.37 198.918 159.999 195.372 168.549C191.894 176.992 183.102 180.453 173.234 176.377ZM181.756 155.755C175.554 153.192 171.448 154.338 169.925 158.031C168.433 161.632 170.41 165.392 176.702 167.992C182.993 170.591 187.043 169.325 188.535 165.724C190.037 162.023 187.936 158.31 181.727 155.75L181.756 155.755Z" fill="#FEFEFE"/>
<path d="M210.298 81.2576C210.69 80.9279 211.125 80.6517 211.59 80.4364C212.455 79.9455 213.744 79.2393 215.424 78.3662C217.105 77.4931 219.171 76.4383 221.607 75.2998C224.044 74.1614 226.854 72.9162 230.061 71.751C233.55 70.4553 237.142 69.4568 240.799 68.7662L242.296 68.4993L243.83 68.2959C244.882 68.1462 245.942 68.0534 247.004 68.0179C249.274 67.9011 251.544 68.2205 253.693 68.9588C254.832 69.3777 255.888 69.9936 256.814 70.7782C257.769 71.5927 258.548 72.594 259.102 73.7205C260.218 76.0228 260.575 78.6198 260.122 81.1378C259.639 83.6828 258.603 86.0905 257.087 88.1908C255.577 90.3058 253.827 92.2384 251.872 93.9498C248.016 97.308 243.622 99.9932 238.875 101.893C236.64 102.81 234.351 103.588 232.02 104.223C229.756 104.847 227.526 105.411 225.331 105.916C216.569 107.902 208.496 108.939 201.669 108.886C199.965 108.874 198.351 108.806 196.817 108.691C196.053 108.628 195.308 108.561 194.583 108.459C193.874 108.383 193.172 108.25 192.483 108.061C191.162 107.743 190.018 106.92 189.297 105.768C188.735 104.8 188.479 103.685 188.563 102.57C188.592 102.107 188.664 101.648 188.778 101.198C188.889 100.808 189.032 100.427 189.206 100.06C189.471 99.4816 189.831 98.9518 190.272 98.4922C190.545 98.2153 190.86 97.9824 191.205 97.8021C191.44 97.6886 191.562 97.6457 191.576 97.67C191.591 97.6943 191.489 97.7816 191.287 97.9331C190.993 98.1523 190.727 98.4077 190.497 98.6932C190.124 99.1584 189.824 99.6779 189.607 100.234C189.469 100.588 189.355 100.952 189.267 101.322C189.186 101.742 189.141 102.169 189.134 102.597C189.104 103.586 189.367 104.562 189.892 105.401C190.546 106.365 191.552 107.034 192.694 107.264C193.349 107.426 194.016 107.535 194.688 107.589C195.391 107.67 196.121 107.713 196.874 107.759C198.388 107.833 199.984 107.863 201.664 107.849C208.37 107.774 216.361 106.654 225.02 104.603C227.188 104.087 229.394 103.511 231.638 102.875C233.912 102.241 236.146 101.469 238.326 100.563C242.917 98.7107 247.168 96.1086 250.907 92.863C252.78 91.2207 254.459 89.3686 255.909 87.3432C257.306 85.4197 258.267 83.2145 258.725 80.8816C259.132 78.6645 258.832 76.3756 257.867 74.3382C256.909 72.4238 255.253 70.9503 253.24 70.2218C251.247 69.5357 249.141 69.2368 247.035 69.341C246.012 69.3642 244.991 69.4419 243.977 69.5739L242.494 69.7427L241.014 69.98C237.411 70.6119 233.865 71.5383 230.412 72.7498C227.232 73.8339 224.412 74.9957 221.943 76.0781C219.474 77.1606 217.387 78.1151 215.675 78.9143L211.742 80.7121C211.285 80.9529 210.8 81.1362 210.298 81.2576Z" fill="#263238"/>
<path d="M106.388 103.234C106.358 103.308 95.4597 100.636 82.021 97.2603C68.5824 93.8844 57.7063 91.0806 57.7276 90.9973C57.7489 90.914 68.6558 93.5954 82.0944 96.9713C95.5331 100.347 106.409 103.151 106.388 103.234Z" fill="#263238"/>
<path d="M67.4678 37.0687C67.5186 37.0998 67.5653 37.1371 67.6068 37.1798L67.9975 37.533L69.4832 38.9089L74.9143 44.0105C79.5051 48.3083 85.8692 54.2263 92.9992 60.6609C100.129 67.0956 106.663 72.8188 111.418 76.9376C113.784 78.9865 115.706 80.6482 117.058 81.8106C117.705 82.3776 118.218 82.8229 118.586 83.1423C118.748 83.2872 118.872 83.4046 118.976 83.4956C119.023 83.5325 119.066 83.5743 119.104 83.6203C119.049 83.5938 118.999 83.5592 118.955 83.5177L118.543 83.1865C118.169 82.8829 117.619 82.4407 116.978 81.9012C115.623 80.7799 113.674 79.1382 111.281 77.0966C106.493 73.0136 99.9114 67.3019 92.8025 60.8757C85.6936 54.4496 79.32 48.5094 74.7662 44.1652C72.4814 42.0206 70.6579 40.2208 69.4029 38.9868L67.9595 37.5667C67.8068 37.4134 67.6868 37.2855 67.5899 37.1914L67.4678 37.0687Z" fill="#263238"/>
<path d="M120.566 22.2567C120.643 22.2326 123.516 32.1534 126.954 44.4273C130.392 56.7012 133.162 66.6482 133.08 66.6702C132.998 66.6921 130.133 56.7681 126.692 44.4995C123.252 32.2309 120.486 22.2734 120.566 22.2567Z" fill="#263238"/>
<path d="M100.948 122.304C100.97 122.386 96.0589 123.796 90.0181 125.475C83.9773 127.153 79.024 128.442 79.002 128.39C78.9799 128.338 83.8902 126.897 89.9311 125.219C95.9719 123.541 100.924 122.227 100.948 122.304Z" fill="#263238"/>
<path d="M165.958 44.6681C166.031 44.6978 162.876 48.8238 158.934 53.8395C154.992 58.8553 151.744 62.8765 151.679 62.8257C151.614 62.7749 154.76 58.6701 158.702 53.6543C162.645 48.6386 165.894 44.6121 165.958 44.6681Z" fill="#263238"/>
<path d="M139.055 111.018L138.463 106.798L135.684 103.567L139.906 102.969L143.143 100.193L143.735 104.413L146.511 107.649L142.292 108.241L139.055 111.018Z" fill="#FEFEFE"/>
<path d="M126.16 127.35L125.953 125.87L124.982 124.738L126.456 124.529L127.588 123.558L127.795 125.038L128.766 126.17L127.292 126.379L126.16 127.35Z" fill="#FEFEFE"/>
<path d="M155.13 125.267L154.73 122.411L152.849 120.221L155.705 119.821L157.895 117.94L158.295 120.796L160.176 122.986L157.32 123.386L155.13 125.267Z" fill="#FEFEFE"/>
<path d="M121.517 87.2816L116.29 78.0657C119.521 72.8194 120.673 66.5543 119.52 60.5017C118.366 54.4491 114.991 49.0467 110.057 45.3565C105.122 41.6663 98.9863 39.9551 92.8545 40.5592C86.7226 41.1634 81.0385 44.0391 76.9193 48.6213C72.8 53.2035 70.5436 59.1607 70.5936 65.322C70.6435 71.4834 72.9962 77.4032 77.1892 81.918C81.3821 86.4328 87.1121 89.2161 93.253 89.7207C99.3938 90.2254 105.501 88.4149 110.375 84.6452L121.517 87.2816Z" fill="white"/>
<path d="M121.518 87.2816L110.353 84.7248C110.343 84.7235 110.334 84.7202 110.326 84.715C110.318 84.7099 110.311 84.7031 110.305 84.695C110.3 84.687 110.296 84.6778 110.295 84.6683C110.293 84.6587 110.293 84.6489 110.296 84.6396C110.296 84.6396 110.296 84.6396 110.296 84.6111L110.398 84.7134C108.836 85.929 107.134 86.9551 105.33 87.7702C103.189 88.7326 100.922 89.385 98.5972 89.7077C97.3063 89.8876 96.0019 89.9523 94.6995 89.9009C94.0234 89.8668 93.3416 89.8498 92.6541 89.7929L90.5688 89.4748C84.3641 88.2578 78.8561 84.7226 75.1655 79.5884C73.1148 76.7471 71.6949 73.5004 71.0008 70.0658C70.2887 66.4338 70.3876 62.6893 71.2905 59.0999C72.2223 55.3496 74.0336 51.875 76.5746 48.9636L77.5803 47.8273C77.9155 47.4523 78.3075 47.1454 78.6655 46.8045C79.0235 46.4636 79.3814 46.117 79.8019 45.833L80.9837 44.9466C81.3731 44.6472 81.7832 44.3757 82.2109 44.1341L83.4609 43.3784L84.7677 42.7421C85.1967 42.5251 85.6388 42.3354 86.0916 42.1739C89.5986 40.7833 93.3739 40.2007 97.137 40.4693C100.697 40.7098 104.16 41.7321 107.279 43.4637C112.878 46.596 117.058 51.761 118.955 57.8897C119.721 60.4915 120.083 63.1952 120.029 65.9067C119.96 68.2592 119.555 70.5898 118.824 72.8271C118.209 74.6868 117.377 76.4679 116.347 78.1339V78.06L121.512 87.31L116.211 78.0998C116.205 78.0893 116.202 78.0776 116.202 78.0657C116.202 78.0539 116.205 78.0422 116.211 78.0316C117.221 76.3702 118.036 74.597 118.637 72.7476C119.355 70.524 119.749 68.2086 119.807 65.8726C119.85 63.1815 119.484 60.4994 118.722 57.9181C116.817 51.8647 112.665 46.7713 107.12 43.6852C104.034 41.9786 100.61 40.9719 97.0915 40.7364C93.3696 40.4782 89.6373 41.0608 86.1711 42.4409C85.7243 42.6034 85.2879 42.7932 84.8643 43.0091L83.5746 43.6341L82.3359 44.3841C81.9147 44.6232 81.5104 44.8909 81.1257 45.1852L79.9553 46.0602C79.5575 46.3443 79.2223 46.708 78.853 47.0261C78.4837 47.3443 78.1087 47.6625 77.7848 48.0318L76.7905 49.1284C74.2774 52.0049 72.4855 55.4387 71.5633 59.1454C70.6699 62.6915 70.569 66.391 71.2678 69.9805C71.9524 73.3768 73.3528 76.5883 75.3757 79.4009C79.0221 84.4869 84.4655 87.9966 90.6029 89.2191L92.6654 89.5373C93.3472 89.5941 94.0234 89.6111 94.6881 89.6509C95.9826 89.7059 97.2795 89.6451 98.5631 89.4691C100.878 89.1633 103.138 88.5281 105.273 87.5827C107.069 86.7829 108.765 85.7741 110.324 84.5771C110.331 84.5697 110.34 84.5638 110.349 84.5597C110.358 84.5557 110.368 84.5536 110.378 84.5536C110.389 84.5536 110.399 84.5557 110.408 84.5597C110.417 84.5638 110.425 84.5697 110.432 84.5771C110.441 84.5907 110.446 84.6064 110.446 84.6225C110.446 84.6386 110.441 84.6544 110.432 84.668L110.393 84.5486L121.518 87.2816Z" fill="#263238"/>
<path d="M88.0571 60.4691C87.6716 60.2872 87.2553 60.1793 86.8299 60.1509C86.2065 60.0509 85.5678 60.1134 84.9755 60.3324C84.3833 60.5513 83.8576 60.9194 83.4492 61.4009C86.114 62.9464 89.7446 64.9975 92.3412 66.4804L95.6196 64.6054C93.256 63.3043 90.2901 61.668 88.0571 60.4691Z" fill="#5D4037"/>
<g opacity="0.3">
<path d="M88.0571 60.4691C87.6716 60.2872 87.2553 60.1793 86.8299 60.1509C86.2065 60.0509 85.5678 60.1134 84.9755 60.3324C84.3833 60.5513 83.8576 60.9194 83.4492 61.4009C86.114 62.9464 89.7446 64.9975 92.3412 66.4804L95.6196 64.6054C93.256 63.3043 90.2901 61.668 88.0571 60.4691Z" fill="black"/>
</g>
<path d="M98.0972 69.9351L97.9779 69.8328C97.1597 69.3612 96.2734 68.4635 95.4666 68.4805C95.1541 68.4805 94.8131 68.7589 94.0007 69.2135C92.6484 69.9805 90.37 71.3157 89.0064 72.0544C87.87 72.6964 86.4268 73.1907 85.103 72.7589C84.4275 72.5108 83.8063 72.1346 83.2734 71.651L98.0915 63.0601C98.0177 62.8385 97.9381 62.6283 97.8643 62.4124C97.5658 61.543 97.5577 60.6003 97.841 59.7259C98.1244 58.8516 98.6839 58.0928 99.4355 57.5637C100.187 57.0346 101.09 56.7638 102.009 56.792C102.928 56.8202 103.812 57.1459 104.53 57.7201C105.248 58.2943 105.76 59.0859 105.989 59.976C106.218 60.8662 106.152 61.8066 105.801 62.656C105.45 63.5054 104.832 64.2179 104.041 64.6862C103.251 65.1546 102.329 65.3536 101.415 65.2533C101.074 65.2311 100.733 65.2997 100.427 65.4521C99.8586 65.7249 99.3359 66.0714 98.6597 66.4578C99.7961 66.9692 100.574 67.7873 101.91 67.6623C103.751 67.4919 105.381 68.8271 105.944 70.6055C106.209 71.4553 106.199 72.367 105.915 73.2108C105.631 74.0545 105.089 74.7872 104.364 75.3043C103.635 75.8278 102.759 76.1066 101.861 76.1008C100.964 76.095 100.091 75.8049 99.3692 75.272C98.6469 74.7392 98.1122 73.9911 97.8418 73.1353C97.5714 72.2795 97.5793 71.36 97.8643 70.5089C97.9325 70.3442 98.029 70.151 98.0972 69.9351ZM101.881 63.1169C102.153 63.12 102.422 63.0685 102.674 62.9655C102.925 62.8624 103.153 62.7099 103.345 62.517C103.536 62.3241 103.687 62.0947 103.788 61.8425C103.888 61.5903 103.938 61.3204 103.932 61.0487C103.924 60.5131 103.706 60.002 103.326 59.6243C102.946 59.2465 102.434 59.0319 101.898 59.026C101.35 59.032 100.825 59.2533 100.439 59.6424C100.052 60.0314 99.8331 60.5569 99.8302 61.1056C99.8464 61.6397 100.069 62.1467 100.452 62.5198C100.834 62.8929 101.347 63.1029 101.881 63.1056V63.1169ZM101.881 73.9578C102.417 73.9626 102.934 73.758 103.321 73.3876C103.708 73.0173 103.936 72.5104 103.955 71.9748C103.967 71.7031 103.923 71.4318 103.827 71.1772C103.732 70.9226 103.585 70.69 103.398 70.4932C103.21 70.2964 102.984 70.1395 102.735 70.0319C102.485 69.9243 102.216 69.8682 101.944 69.8669C101.408 69.8604 100.89 70.0624 100.5 70.4302C100.11 70.798 99.8779 71.3029 99.8529 71.8385C99.848 72.3815 100.055 72.9051 100.429 73.2985C100.803 73.6919 101.316 73.9243 101.859 73.9464L101.881 73.9578Z" fill="#5D4037"/>
<path d="M96.37 66.4124C96.3189 66.4124 96.3416 66.0317 95.9212 65.7306C95.8056 65.6505 95.6722 65.5998 95.5326 65.583C95.393 65.5661 95.2514 65.5837 95.1201 65.6341C94.9637 65.6963 94.8296 65.804 94.7352 65.9433C94.6407 66.0825 94.5902 66.2469 94.5902 66.4152C94.5902 66.5835 94.6407 66.7479 94.7352 66.8872C94.8296 67.0265 94.9637 67.1343 95.1201 67.1966C95.2514 67.2469 95.393 67.2643 95.5326 67.2475C95.6722 67.2307 95.8056 67.18 95.9212 67.0999C96.3416 66.7988 96.3189 66.401 96.37 66.4124C96.4212 66.4238 96.4155 66.5033 96.37 66.6624C96.3363 66.8989 96.2145 67.114 96.0291 67.2647C95.889 67.3809 95.7214 67.4593 95.5423 67.4922C95.3632 67.525 95.1787 67.5112 95.0064 67.4522C94.7905 67.3779 94.6031 67.238 94.4705 67.0521C94.3379 66.8662 94.2666 66.6436 94.2666 66.4152C94.2666 66.1869 94.3379 65.9642 94.4705 65.7783C94.6031 65.5925 94.7905 65.4527 95.0064 65.3784C95.1787 65.3194 95.3632 65.3056 95.5423 65.3384C95.7214 65.3712 95.889 65.4496 96.0291 65.5659C96.2142 65.7145 96.336 65.9276 96.37 66.1624C96.4155 66.3215 96.3871 66.4124 96.37 66.4124Z" fill="#263238"/>
<path d="M99.9948 65.6908C99.8986 65.7632 99.798 65.8296 99.6937 65.8897L98.8471 66.401L96.046 68.0487L93.2051 69.6624L92.3414 70.1396C92.2384 70.2038 92.1301 70.2589 92.0176 70.3044C92.1126 70.2287 92.2133 70.1603 92.3187 70.0999L93.1653 69.5885L95.9664 67.9465L98.8073 66.3328L99.6709 65.8499C99.7747 65.7886 99.8829 65.7355 99.9948 65.6908Z" fill="#263238"/>
<path d="M97.5295 63.4181C97.4865 63.4536 97.4409 63.4859 97.3931 63.5147L96.984 63.7704L95.4727 64.7079C94.2 65.4806 92.4329 66.5374 90.45 67.6567L85.3875 70.5317L83.825 71.3612L83.4046 71.5885L83.2568 71.6624C83.2568 71.6624 83.3023 71.6283 83.3932 71.5715L83.8023 71.3215L85.325 70.4294L90.3761 67.526C92.3534 66.3897 94.1261 65.3613 95.4159 64.6113L96.9443 63.7306L97.3647 63.492L97.5295 63.4181Z" fill="#263238"/>
<path d="M56.5814 95.8708L57.6609 97.8425L59.6325 98.9221L57.6609 100.002L56.5814 101.973L55.5019 100.002L53.5303 98.9221L55.5019 97.8425L56.5814 95.8708Z" fill="#5D4037"/>
<path d="M63.7861 68.871L64.9054 68.7972L65.8088 68.1267L65.8827 69.2517L66.5532 70.1551L65.4282 70.229L64.5248 70.8937L64.4509 69.7744L63.7861 68.871Z" fill="#5D4037"/>
<path d="M245.523 158.53L246.643 158.456L247.546 157.785L247.62 158.91L248.29 159.814L247.165 159.888L246.262 160.552L246.188 159.433L245.523 158.53Z" fill="#5D4037"/>
<path d="M117.507 102.433L118.626 102.359L119.535 101.695L119.609 102.814L120.274 103.717L119.155 103.791L118.245 104.456L118.177 103.337L117.507 102.433Z" fill="#5D4037"/>
<path d="M124.337 54.4222L125.456 54.3484L126.36 53.6836L126.433 54.8029L127.098 55.7063L125.979 55.7802L125.076 56.4506L125.002 55.3256L124.337 54.4222Z" fill="#5D4037"/>
<path d="M89.9336 84.2175L91.6381 83.2345L92.5415 81.4902L93.5245 83.1948L95.2745 84.1039L93.57 85.0811L92.6609 86.8311L91.6779 85.1266L89.9336 84.2175Z" fill="#5D4037"/>
<path d="M233.143 181.098L234.847 180.115L235.75 178.37L236.733 180.075L238.478 180.978L236.773 181.961L235.87 183.706L234.887 182.001L233.143 181.098Z" fill="#5D4037"/>
<path d="M224.58 149.933L226.285 148.95L227.194 147.206L228.177 148.91L229.921 149.814L228.216 150.797L227.307 152.547L226.33 150.836L224.58 149.933Z" fill="#5D4037"/>
<path d="M265.409 143.337L266.252 140.908C266.769 139.421 268.346 138.586 269.865 138.995L270.204 139.086C271.771 139.508 273.389 138.606 273.856 137.052L274.792 133.936" stroke="#302318"/>
<path d="M66 151.334L68.3155 150.215C69.7323 149.53 71.4373 150.057 72.2215 151.421L72.396 151.724C73.2049 153.131 74.986 153.64 76.4159 152.872L79.2819 151.334" stroke="#302318"/>
<path d="M220.952 231.084C220.952 233.047 219.3 234.668 217.226 234.668C215.152 234.668 213.5 233.047 213.5 231.084C213.5 229.121 215.152 227.5 217.226 227.5C219.3 227.5 220.952 229.121 220.952 231.084Z" stroke="#302318"/>
<path d="M81.9521 172.084C81.9521 174.047 80.3002 175.668 78.2261 175.668C76.152 175.668 74.5 174.047 74.5 172.084C74.5 170.121 76.152 168.5 78.2261 168.5C80.3002 168.5 81.9521 170.121 81.9521 172.084Z" stroke="#302318"/>
<path d="M259.952 118.084C259.952 120.047 258.3 121.668 256.226 121.668C254.152 121.668 252.5 120.047 252.5 118.084C252.5 116.121 254.152 114.5 256.226 114.5C258.3 114.5 259.952 116.121 259.952 118.084Z" stroke="#302318"/>
</svg>
