<svg width="300" height="299" viewBox="0 0 300 299" fill="none" xmlns="http://www.w3.org/2000/svg">
<path d="M150.555 253.363C208.238 253.363 254.999 208.697 254.999 153.599C254.999 98.5007 208.238 53.8347 150.555 53.8347C92.8725 53.8347 46.1113 98.5007 46.1113 153.599C46.1113 208.697 92.8725 253.363 150.555 253.363Z" fill="#F4E4D6"/>
<path d="M223.521 161.031C223.521 197.615 193.497 227.323 156.397 227.323C119.297 227.323 89.2734 197.615 89.2734 161.031C89.2734 124.448 119.297 94.7402 156.397 94.7402C193.497 94.7402 223.521 124.448 223.521 161.031Z" fill="#795548" stroke="#302318" stroke-width="5"/>
<path d="M220.596 155.454C222.856 195.427 193.945 224.71 155.493 224.71C126.106 221.921 117.064 210.766 114.352 208.906L220.596 155.454Z" fill="#5D4037"/>
<path d="M168.769 86.6626C170.426 86.6626 171.769 85.3194 171.769 83.6626V72C171.769 70.3431 170.426 69 168.769 69H141.765C140.108 69 138.765 70.3431 138.765 72V83.6626C138.765 85.3194 140.108 86.6626 141.765 86.6626H155.041H163.405H168.769Z" fill="#382621"/>
<path d="M198.443 101.072L208.307 107.081C209.633 107.889 211.357 107.551 212.28 106.303L217.426 99.3419C218.423 97.9936 218.121 96.0901 216.756 95.1163L199.577 82.8613C198.209 81.8859 196.308 82.223 195.359 83.6091L190.122 91.2604C189.214 92.5874 189.513 94.3946 190.801 95.3576L198.443 101.072Z" fill="#382621"/>
<path d="M195.73 105.255L198.443 101.071M198.443 101.071L208.307 107.081C209.633 107.889 211.357 107.551 212.28 106.303L217.426 99.3419C218.423 97.9936 218.121 96.0901 216.756 95.1163L199.577 82.8613C198.209 81.8859 196.308 82.223 195.359 83.6091L190.122 91.2604C189.214 92.5874 189.513 94.3946 190.801 95.3576L198.443 101.071ZM155.041 93.6347V86.6626M155.041 86.6626H141.765C140.108 86.6626 138.765 85.3194 138.765 83.6626V72C138.765 70.3431 140.108 69 141.765 69H168.769C170.426 69 171.769 70.3431 171.769 72V83.6626C171.769 85.3194 170.426 86.6626 168.769 86.6626H163.405H155.041ZM86.7734 127.565H59.1951M78.1835 144.298H46.9883M75.923 161.961H28M78.1835 181.483H49.701" stroke="#302318" stroke-width="5" stroke-linecap="round"/>
<path d="M90.1836 194.221C96.2208 202.814 98.6357 208.952 113.125 219.387M119.162 224.912C140.293 237.802 197.888 244.8 225.418 189.31" stroke="#302318" stroke-width="3" stroke-linecap="round"/>
<path d="M204.321 161.496C204.321 187.937 182.865 209.371 156.398 209.371C129.93 209.371 108.475 187.937 108.475 161.496C108.475 135.056 129.93 113.621 156.398 113.621C182.865 113.621 204.321 135.056 204.321 161.496Z" fill="#FEFEFE"/>
<path d="M108.399 81.2558C108.399 83.2191 106.747 84.8397 104.673 84.8397C102.599 84.8397 100.947 83.2191 100.947 81.2558C100.947 79.2924 102.599 77.6719 104.673 77.6719C106.747 77.6719 108.399 79.2924 108.399 81.2558Z" stroke="#302318"/>
<path d="M232.766 73.0879C232.766 75.0513 231.114 76.6719 229.04 76.6719C226.965 76.6719 225.313 75.0513 225.313 73.0879C225.313 71.1246 226.965 69.504 229.04 69.504C231.114 69.504 232.766 71.1246 232.766 73.0879Z" stroke="#302318"/>
<path d="M215.861 231.777C215.861 233.741 214.209 235.361 212.135 235.361C210.061 235.361 208.409 233.741 208.409 231.777C208.409 229.814 210.061 228.193 212.135 228.193C214.209 228.193 215.861 229.814 215.861 231.777Z" stroke="#302318"/>
<path d="M80.6281 213.108C80.6281 214.427 79.5167 215.525 78.1094 215.525C76.7022 215.525 75.5908 214.427 75.5908 213.108C75.5908 211.789 76.7022 210.691 78.1094 210.691C79.5167 210.691 80.6281 211.789 80.6281 213.108Z" stroke="#302318"/>
<path d="M241.718 150.682L244.033 149.564C245.45 148.879 247.155 149.405 247.939 150.77L248.114 151.073C248.923 152.48 250.704 152.989 252.134 152.221L255 150.682" stroke="#302318"/>
<path d="M112.974 263.881L113.824 261.625C114.382 260.144 116.048 259.352 117.604 259.827L117.843 259.9C119.449 260.39 121.159 259.531 121.665 257.981L122.62 255.059" stroke="#302318"/>
<path d="M150.405 51.5176L151.255 49.2613C151.813 47.7806 153.479 46.9885 155.036 47.4634L155.274 47.5362C156.88 48.0261 158.59 47.1675 159.097 45.6173L160.052 42.6949" stroke="#302318"/>
<path d="M48.3252 91.5938L50.6376 92.4334C52.1701 92.99 52.9788 94.6148 52.4707 96.1164L52.3977 96.3321C51.8736 97.881 52.7512 99.5503 54.3562 100.058L57.356 101.005" stroke="#302318"/>
<mask id="path-17-inside-1_955_4892" fill="white">
<path d="M205 161.5C205 188.286 183.286 210 156.5 210C129.714 210 108 188.286 108 161.5C108 134.714 129.714 113 156.5 113C183.286 113 205 134.714 205 161.5Z"/>
</mask>
<path d="M205 161.5C205 188.286 183.286 210 156.5 210C129.714 210 108 188.286 108 161.5C108 134.714 129.714 113 156.5 113C183.286 113 205 134.714 205 161.5Z" fill="#FEFEFE"/>
<path d="M152.627 127.597C152.627 128.978 153.747 130.097 155.127 130.097C156.508 130.097 157.627 128.978 157.627 127.597H152.627ZM180.97 134.16C179.914 135.05 179.779 136.627 180.668 137.683C181.557 138.739 183.134 138.874 184.19 137.985L180.97 134.16ZM190.358 161.354C188.978 161.354 187.858 162.474 187.858 163.854C187.858 165.235 188.978 166.354 190.358 166.354V161.354ZM181.407 185.925C180.333 185.057 178.759 185.223 177.891 186.297C177.023 187.371 177.189 188.945 178.263 189.813L181.407 185.925ZM157.627 193.049C157.627 191.668 156.508 190.549 155.127 190.549C153.747 190.549 152.627 191.668 152.627 193.049H157.627ZM131.298 191.495C132.26 190.504 132.237 188.922 131.247 187.959C130.257 186.997 128.674 187.02 127.712 188.01L131.298 191.495ZM123.099 166.354C124.48 166.354 125.599 165.235 125.599 163.854C125.599 162.474 124.48 161.354 123.099 161.354V166.354ZM126.753 138.158C127.904 138.92 129.455 138.604 130.217 137.452C130.979 136.301 130.663 134.75 129.511 133.988L126.753 138.158ZM157.627 149.257C157.627 147.877 156.508 146.757 155.127 146.757C153.747 146.757 152.627 147.877 152.627 149.257H157.627ZM155.127 163.854V166.354C156.508 166.354 157.627 165.235 157.627 163.854H155.127ZM143.689 161.354C142.308 161.354 141.189 162.474 141.189 163.854C141.189 165.235 142.308 166.354 143.689 166.354V161.354ZM152.627 116.296V127.597H157.627V116.296H152.627ZM186.003 129.923L180.97 134.16L184.19 137.985L189.223 133.747L186.003 129.923ZM200.882 161.354H190.358V166.354H200.882V161.354ZM187.812 191.105L181.407 185.925L178.263 189.813L184.669 194.993L187.812 191.105ZM157.627 205.762V193.049H152.627V205.762H157.627ZM128.095 194.791L131.298 191.495L127.712 188.01L124.509 191.306L128.095 194.791ZM112.118 166.354H123.099V161.354H112.118V166.354ZM120.347 133.92L126.753 138.158L129.511 133.988L123.106 129.75L120.347 133.92ZM152.627 149.257V163.854H157.627V149.257H152.627ZM155.127 161.354H143.689V166.354H155.127V161.354ZM200 161.5C200 185.524 180.524 205 156.5 205V215C186.047 215 210 191.047 210 161.5H200ZM156.5 205C132.476 205 113 185.524 113 161.5H103C103 191.047 126.953 215 156.5 215V205ZM113 161.5C113 137.476 132.476 118 156.5 118V108C126.953 108 103 131.953 103 161.5H113ZM156.5 118C180.524 118 200 137.476 200 161.5H210C210 131.953 186.047 108 156.5 108V118Z" fill="#302318" mask="url(#path-17-inside-1_955_4892)"/>
</svg>
