<svg width="59" height="22" viewBox="0 0 59 22" fill="none" xmlns="http://www.w3.org/2000/svg">
<rect x="0.5" y="0.5" width="58" height="21" rx="5.5" fill="#F5F5FF"/>
<path d="M13.868 13.14H10.22L9.548 15H8.396L11.42 6.684H12.68L15.692 15H14.54L13.868 13.14ZM13.556 12.252L12.044 8.028L10.532 12.252H13.556ZM16.6019 11.7C16.6019 11.02 16.7379 10.428 17.0099 9.924C17.2819 9.412 17.6579 9.016 18.1379 8.736C18.6259 8.456 19.1819 8.316 19.8059 8.316C20.6139 8.316 21.2779 8.512 21.7979 8.904C22.3259 9.296 22.6739 9.84 22.8419 10.536H21.6659C21.5539 10.136 21.3339 9.82 21.0059 9.588C20.6859 9.356 20.2859 9.24 19.8059 9.24C19.1819 9.24 18.6779 9.456 18.2939 9.888C17.9099 10.312 17.7179 10.916 17.7179 11.7C17.7179 12.492 17.9099 13.104 18.2939 13.536C18.6779 13.968 19.1819 14.184 19.8059 14.184C20.2859 14.184 20.6859 14.072 21.0059 13.848C21.3259 13.624 21.5459 13.304 21.6659 12.888H22.8419C22.6659 13.56 22.3139 14.1 21.7859 14.508C21.2579 14.908 20.5979 15.108 19.8059 15.108C19.1819 15.108 18.6259 14.968 18.1379 14.688C17.6579 14.408 17.2819 14.012 17.0099 13.5C16.7379 12.988 16.6019 12.388 16.6019 11.7ZM23.891 11.7C23.891 11.02 24.027 10.428 24.299 9.924C24.571 9.412 24.947 9.016 25.427 8.736C25.915 8.456 26.471 8.316 27.095 8.316C27.903 8.316 28.567 8.512 29.087 8.904C29.615 9.296 29.963 9.84 30.131 10.536H28.955C28.843 10.136 28.623 9.82 28.295 9.588C27.975 9.356 27.575 9.24 27.095 9.24C26.471 9.24 25.967 9.456 25.583 9.888C25.199 10.312 25.007 10.916 25.007 11.7C25.007 12.492 25.199 13.104 25.583 13.536C25.967 13.968 26.471 14.184 27.095 14.184C27.575 14.184 27.975 14.072 28.295 13.848C28.615 13.624 28.835 13.304 28.955 12.888H30.131C29.955 13.56 29.603 14.1 29.075 14.508C28.547 14.908 27.887 15.108 27.095 15.108C26.471 15.108 25.915 14.968 25.427 14.688C24.947 14.408 24.571 14.012 24.299 13.5C24.027 12.988 23.891 12.388 23.891 11.7ZM37.5881 11.46C37.5881 11.668 37.5761 11.888 37.5521 12.12H32.2961C32.3361 12.768 32.5561 13.276 32.9561 13.644C33.3641 14.004 33.8561 14.184 34.4321 14.184C34.9041 14.184 35.2961 14.076 35.6081 13.86C35.9281 13.636 36.1521 13.34 36.2801 12.972H37.4561C37.2801 13.604 36.9281 14.12 36.4001 14.52C35.8721 14.912 35.2161 15.108 34.4321 15.108C33.8081 15.108 33.2481 14.968 32.7521 14.688C32.2641 14.408 31.8801 14.012 31.6001 13.5C31.3201 12.98 31.1801 12.38 31.1801 11.7C31.1801 11.02 31.3161 10.424 31.5881 9.912C31.8601 9.4 32.2401 9.008 32.7281 8.736C33.2241 8.456 33.7921 8.316 34.4321 8.316C35.0561 8.316 35.6081 8.452 36.0881 8.724C36.5681 8.996 36.9361 9.372 37.1921 9.852C37.4561 10.324 37.5881 10.86 37.5881 11.46ZM36.4601 11.232C36.4601 10.816 36.3681 10.46 36.1841 10.164C36.0001 9.86 35.7481 9.632 35.4281 9.48C35.1161 9.32 34.7681 9.24 34.3841 9.24C33.8321 9.24 33.3601 9.416 32.9681 9.768C32.5841 10.12 32.3641 10.608 32.3081 11.232H36.4601ZM40.1215 9.636C40.3375 9.26 40.6575 8.948 41.0815 8.7C41.5135 8.444 42.0135 8.316 42.5815 8.316C43.1655 8.316 43.6935 8.456 44.1655 8.736C44.6455 9.016 45.0215 9.412 45.2935 9.924C45.5655 10.428 45.7015 11.016 45.7015 11.688C45.7015 12.352 45.5655 12.944 45.2935 13.464C45.0215 13.984 44.6455 14.388 44.1655 14.676C43.6935 14.964 43.1655 15.108 42.5815 15.108C42.0215 15.108 41.5255 14.984 41.0935 14.736C40.6695 14.48 40.3455 14.164 40.1215 13.788V18.12H39.0295V8.424H40.1215V9.636ZM44.5855 11.688C44.5855 11.192 44.4855 10.76 44.2855 10.392C44.0855 10.024 43.8135 9.744 43.4695 9.552C43.1335 9.36 42.7615 9.264 42.3535 9.264C41.9535 9.264 41.5815 9.364 41.2375 9.564C40.9015 9.756 40.6295 10.04 40.4215 10.416C40.2215 10.784 40.1215 11.212 40.1215 11.7C40.1215 12.196 40.2215 12.632 40.4215 13.008C40.6295 13.376 40.9015 13.66 41.2375 13.86C41.5815 14.052 41.9535 14.148 42.3535 14.148C42.7615 14.148 43.1335 14.052 43.4695 13.86C43.8135 13.66 44.0855 13.376 44.2855 13.008C44.4855 12.632 44.5855 12.192 44.5855 11.688ZM48.4708 9.324V13.2C48.4708 13.52 48.5388 13.748 48.6748 13.884C48.8108 14.012 49.0468 14.076 49.3828 14.076H50.1868V15H49.2028C48.5948 15 48.1388 14.86 47.8348 14.58C47.5308 14.3 47.3788 13.84 47.3788 13.2V9.324H46.5268V8.424H47.3788V6.768H48.4708V8.424H50.1868V9.324H48.4708Z" fill="#008000"/>
<rect x="0.5" y="0.5" width="58" height="21" rx="5.5" stroke="#B8DBCA"/>
</svg>
