<svg width="43" height="22" viewBox="0 0 43 22" fill="none" xmlns="http://www.w3.org/2000/svg">
<rect x="0.5" y="0.5" width="42" height="21" rx="5.5" fill="#F5F5FF"/>
<path d="M14.732 9.144C14.732 9.568 14.632 9.968 14.432 10.344C14.232 10.72 13.912 11.028 13.472 11.268C13.032 11.5 12.468 11.616 11.78 11.616H10.268V15H8.9V6.66H11.78C12.42 6.66 12.96 6.772 13.4 6.996C13.848 7.212 14.18 7.508 14.396 7.884C14.62 8.26 14.732 8.68 14.732 9.144ZM11.78 10.5C12.3 10.5 12.688 10.384 12.944 10.152C13.2 9.912 13.328 9.576 13.328 9.144C13.328 8.232 12.812 7.776 11.78 7.776H10.268V10.5H11.78ZM15.5807 11.664C15.5807 11 15.7167 10.412 15.9887 9.9C16.2687 9.388 16.6447 8.992 17.1167 8.712C17.5967 8.424 18.1247 8.28 18.7007 8.28C19.2207 8.28 19.6727 8.384 20.0567 8.592C20.4487 8.792 20.7607 9.044 20.9927 9.348V8.388H22.3727V15H20.9927V14.016C20.7607 14.328 20.4447 14.588 20.0447 14.796C19.6447 15.004 19.1887 15.108 18.6767 15.108C18.1087 15.108 17.5887 14.964 17.1167 14.676C16.6447 14.38 16.2687 13.972 15.9887 13.452C15.7167 12.924 15.5807 12.328 15.5807 11.664ZM20.9927 11.688C20.9927 11.232 20.8967 10.836 20.7047 10.5C20.5207 10.164 20.2767 9.908 19.9727 9.732C19.6687 9.556 19.3407 9.468 18.9887 9.468C18.6367 9.468 18.3087 9.556 18.0047 9.732C17.7007 9.9 17.4527 10.152 17.2607 10.488C17.0767 10.816 16.9847 11.208 16.9847 11.664C16.9847 12.12 17.0767 12.52 17.2607 12.864C17.4527 13.208 17.7007 13.472 18.0047 13.656C18.3167 13.832 18.6447 13.92 18.9887 13.92C19.3407 13.92 19.6687 13.832 19.9727 13.656C20.2767 13.48 20.5207 13.224 20.7047 12.888C20.8967 12.544 20.9927 12.144 20.9927 11.688ZM24.8655 7.512C24.6175 7.512 24.4095 7.428 24.2415 7.26C24.0735 7.092 23.9895 6.884 23.9895 6.636C23.9895 6.388 24.0735 6.18 24.2415 6.012C24.4095 5.844 24.6175 5.76 24.8655 5.76C25.1055 5.76 25.3095 5.844 25.4775 6.012C25.6455 6.18 25.7295 6.388 25.7295 6.636C25.7295 6.884 25.6455 7.092 25.4775 7.26C25.3095 7.428 25.1055 7.512 24.8655 7.512ZM25.5375 8.388V15H24.1695V8.388H25.5375ZM26.8776 11.664C26.8776 11 27.0136 10.412 27.2856 9.9C27.5656 9.388 27.9416 8.992 28.4136 8.712C28.8936 8.424 29.4256 8.28 30.0096 8.28C30.4416 8.28 30.8656 8.376 31.2816 8.568C31.7056 8.752 32.0416 9 32.2896 9.312V6.12H33.6696V15H32.2896V14.004C32.0656 14.324 31.7536 14.588 31.3536 14.796C30.9616 15.004 30.5096 15.108 29.9976 15.108C29.4216 15.108 28.8936 14.964 28.4136 14.676C27.9416 14.38 27.5656 13.972 27.2856 13.452C27.0136 12.924 26.8776 12.328 26.8776 11.664ZM32.2896 11.688C32.2896 11.232 32.1936 10.836 32.0016 10.5C31.8176 10.164 31.5736 9.908 31.2696 9.732C30.9656 9.556 30.6376 9.468 30.2856 9.468C29.9336 9.468 29.6056 9.556 29.3016 9.732C28.9976 9.9 28.7496 10.152 28.5576 10.488C28.3736 10.816 28.2816 11.208 28.2816 11.664C28.2816 12.12 28.3736 12.52 28.5576 12.864C28.7496 13.208 28.9976 13.472 29.3016 13.656C29.6136 13.832 29.9416 13.92 30.2856 13.92C30.6376 13.92 30.9656 13.832 31.2696 13.656C31.5736 13.48 31.8176 13.224 32.0016 12.888C32.1936 12.544 32.2896 12.144 32.2896 11.688Z" fill="#43936C"/>
<rect x="0.5" y="0.5" width="42" height="21" rx="5.5" stroke="#B8DBCA"/>
</svg>
