<svg width="66" height="22" viewBox="0 0 66 22" fill="none" xmlns="http://www.w3.org/2000/svg">
<rect x="1" y="0.5" width="64" height="21" rx="5.5" fill="#FFF9F2"/>
<path d="M15.016 9.084C15.016 9.78 14.776 10.36 14.296 10.824C13.824 11.28 13.1 11.508 12.124 11.508H10.516V15H9.424V6.636H12.124C13.068 6.636 13.784 6.864 14.272 7.32C14.768 7.776 15.016 8.364 15.016 9.084ZM12.124 10.608C12.732 10.608 13.18 10.476 13.468 10.212C13.756 9.948 13.9 9.572 13.9 9.084C13.9 8.052 13.308 7.536 12.124 7.536H10.516V10.608H12.124ZM22.3732 11.46C22.3732 11.668 22.3612 11.888 22.3372 12.12H17.0812C17.1212 12.768 17.3412 13.276 17.7412 13.644C18.1492 14.004 18.6412 14.184 19.2172 14.184C19.6892 14.184 20.0812 14.076 20.3932 13.86C20.7132 13.636 20.9372 13.34 21.0652 12.972H22.2412C22.0652 13.604 21.7132 14.12 21.1852 14.52C20.6572 14.912 20.0012 15.108 19.2172 15.108C18.5932 15.108 18.0332 14.968 17.5372 14.688C17.0492 14.408 16.6652 14.012 16.3852 13.5C16.1052 12.98 15.9652 12.38 15.9652 11.7C15.9652 11.02 16.1012 10.424 16.3732 9.912C16.6452 9.4 17.0252 9.008 17.5132 8.736C18.0092 8.456 18.5772 8.316 19.2172 8.316C19.8412 8.316 20.3932 8.452 20.8732 8.724C21.3532 8.996 21.7212 9.372 21.9772 9.852C22.2412 10.324 22.3732 10.86 22.3732 11.46ZM21.2452 11.232C21.2452 10.816 21.1532 10.46 20.9692 10.164C20.7852 9.86 20.5332 9.632 20.2132 9.48C19.9012 9.32 19.5532 9.24 19.1692 9.24C18.6172 9.24 18.1452 9.416 17.7532 9.768C17.3692 10.12 17.1492 10.608 17.0932 11.232H21.2452ZM27.0186 8.304C27.8186 8.304 28.4666 8.548 28.9626 9.036C29.4586 9.516 29.7066 10.212 29.7066 11.124V15H28.6266V11.28C28.6266 10.624 28.4626 10.124 28.1346 9.78C27.8066 9.428 27.3586 9.252 26.7906 9.252C26.2146 9.252 25.7546 9.432 25.4106 9.792C25.0746 10.152 24.9066 10.676 24.9066 11.364V15H23.8146V8.424H24.9066V9.36C25.1226 9.024 25.4146 8.764 25.7826 8.58C26.1586 8.396 26.5706 8.304 27.0186 8.304ZM31.0824 11.688C31.0824 11.016 31.2184 10.428 31.4904 9.924C31.7624 9.412 32.1344 9.016 32.6064 8.736C33.0864 8.456 33.6224 8.316 34.2144 8.316C34.7264 8.316 35.2024 8.436 35.6424 8.676C36.0824 8.908 36.4184 9.216 36.6504 9.6V6.12H37.7544V15H36.6504V13.764C36.4344 14.156 36.1144 14.48 35.6904 14.736C35.2664 14.984 34.7704 15.108 34.2024 15.108C33.6184 15.108 33.0864 14.964 32.6064 14.676C32.1344 14.388 31.7624 13.984 31.4904 13.464C31.2184 12.944 31.0824 12.352 31.0824 11.688ZM36.6504 11.7C36.6504 11.204 36.5504 10.772 36.3504 10.404C36.1504 10.036 35.8784 9.756 35.5344 9.564C35.1984 9.364 34.8264 9.264 34.4184 9.264C34.0104 9.264 33.6384 9.36 33.3024 9.552C32.9664 9.744 32.6984 10.024 32.4984 10.392C32.2984 10.76 32.1984 11.192 32.1984 11.688C32.1984 12.192 32.2984 12.632 32.4984 13.008C32.6984 13.376 32.9664 13.66 33.3024 13.86C33.6384 14.052 34.0104 14.148 34.4184 14.148C34.8264 14.148 35.1984 14.052 35.5344 13.86C35.8784 13.66 36.1504 13.376 36.3504 13.008C36.5504 12.632 36.6504 12.196 36.6504 11.7ZM40.1638 7.356C39.9558 7.356 39.7798 7.284 39.6358 7.14C39.4918 6.996 39.4198 6.82 39.4198 6.612C39.4198 6.404 39.4918 6.228 39.6358 6.084C39.7798 5.94 39.9558 5.868 40.1638 5.868C40.3638 5.868 40.5318 5.94 40.6678 6.084C40.8118 6.228 40.8838 6.404 40.8838 6.612C40.8838 6.82 40.8118 6.996 40.6678 7.14C40.5318 7.284 40.3638 7.356 40.1638 7.356ZM40.6918 8.424V15H39.5998V8.424H40.6918ZM45.7569 8.304C46.5569 8.304 47.2049 8.548 47.7009 9.036C48.1969 9.516 48.4449 10.212 48.4449 11.124V15H47.3649V11.28C47.3649 10.624 47.2009 10.124 46.8729 9.78C46.5449 9.428 46.0969 9.252 45.5289 9.252C44.9529 9.252 44.4929 9.432 44.1489 9.792C43.8129 10.152 43.6449 10.676 43.6449 11.364V15H42.5529V8.424H43.6449V9.36C43.8609 9.024 44.1529 8.764 44.5209 8.58C44.8969 8.396 45.3089 8.304 45.7569 8.304ZM52.9407 8.316C53.5087 8.316 54.0047 8.44 54.4287 8.688C54.8607 8.936 55.1807 9.248 55.3887 9.624V8.424H56.4927V15.144C56.4927 15.744 56.3647 16.276 56.1087 16.74C55.8527 17.212 55.4847 17.58 55.0047 17.844C54.5327 18.108 53.9807 18.24 53.3487 18.24C52.4847 18.24 51.7647 18.036 51.1887 17.628C50.6127 17.22 50.2727 16.664 50.1687 15.96H51.2487C51.3687 16.36 51.6167 16.68 51.9927 16.92C52.3687 17.168 52.8207 17.292 53.3487 17.292C53.9487 17.292 54.4367 17.104 54.8127 16.728C55.1967 16.352 55.3887 15.824 55.3887 15.144V13.764C55.1727 14.148 54.8527 14.468 54.4287 14.724C54.0047 14.98 53.5087 15.108 52.9407 15.108C52.3567 15.108 51.8247 14.964 51.3447 14.676C50.8727 14.388 50.5007 13.984 50.2287 13.464C49.9567 12.944 49.8207 12.352 49.8207 11.688C49.8207 11.016 49.9567 10.428 50.2287 9.924C50.5007 9.412 50.8727 9.016 51.3447 8.736C51.8247 8.456 52.3567 8.316 52.9407 8.316ZM55.3887 11.7C55.3887 11.204 55.2887 10.772 55.0887 10.404C54.8887 10.036 54.6167 9.756 54.2727 9.564C53.9367 9.364 53.5647 9.264 53.1567 9.264C52.7487 9.264 52.3767 9.36 52.0407 9.552C51.7047 9.744 51.4367 10.024 51.2367 10.392C51.0367 10.76 50.9367 11.192 50.9367 11.688C50.9367 12.192 51.0367 12.632 51.2367 13.008C51.4367 13.376 51.7047 13.66 52.0407 13.86C52.3767 14.052 52.7487 14.148 53.1567 14.148C53.5647 14.148 53.9367 14.052 54.2727 13.86C54.6167 13.66 54.8887 13.376 55.0887 13.008C55.2887 12.632 55.3887 12.196 55.3887 11.7Z" fill="#EB9525"/>
<rect x="1" y="0.5" width="64" height="21" rx="5.5" stroke="#EECEB0"/>
</svg>
