<svg width="69" height="22" viewBox="0 0 69 22" fill="none" xmlns="http://www.w3.org/2000/svg">
<rect x="0.5" y="0.5" width="68" height="21" rx="5.5" fill="#F0F3FF"/>
<path d="M11.576 15.084C11.024 15.084 10.528 14.988 10.088 14.796C9.656 14.596 9.316 14.324 9.068 13.98C8.82 13.628 8.692 13.224 8.684 12.768H9.848C9.888 13.16 10.048 13.492 10.328 13.764C10.616 14.028 11.032 14.16 11.576 14.16C12.096 14.16 12.504 14.032 12.8 13.776C13.104 13.512 13.256 13.176 13.256 12.768C13.256 12.448 13.168 12.188 12.992 11.988C12.816 11.788 12.596 11.636 12.332 11.532C12.068 11.428 11.712 11.316 11.264 11.196C10.712 11.052 10.268 10.908 9.932 10.764C9.604 10.62 9.32 10.396 9.08 10.092C8.848 9.78 8.732 9.364 8.732 8.844C8.732 8.388 8.848 7.984 9.08 7.632C9.312 7.28 9.636 7.008 10.052 6.816C10.476 6.624 10.96 6.528 11.504 6.528C12.288 6.528 12.928 6.724 13.424 7.116C13.928 7.508 14.212 8.028 14.276 8.676H13.076C13.036 8.356 12.868 8.076 12.572 7.836C12.276 7.588 11.884 7.464 11.396 7.464C10.94 7.464 10.568 7.584 10.28 7.824C9.992 8.056 9.848 8.384 9.848 8.808C9.848 9.112 9.932 9.36 10.1 9.552C10.276 9.744 10.488 9.892 10.736 9.996C10.992 10.092 11.348 10.204 11.804 10.332C12.356 10.484 12.8 10.636 13.136 10.788C13.472 10.932 13.76 11.16 14 11.472C14.24 11.776 14.36 12.192 14.36 12.72C14.36 13.128 14.252 13.512 14.036 13.872C13.82 14.232 13.5 14.524 13.076 14.748C12.652 14.972 12.152 15.084 11.576 15.084ZM19.231 8.304C19.727 8.304 20.175 8.412 20.575 8.628C20.975 8.836 21.287 9.152 21.511 9.576C21.743 10 21.859 10.516 21.859 11.124V15H20.779V11.28C20.779 10.624 20.615 10.124 20.287 9.78C19.959 9.428 19.511 9.252 18.943 9.252C18.367 9.252 17.907 9.432 17.563 9.792C17.227 10.152 17.059 10.676 17.059 11.364V15H15.967V6.12H17.059V9.36C17.275 9.024 17.571 8.764 17.947 8.58C18.331 8.396 18.759 8.304 19.231 8.304ZM24.2068 7.356C23.9988 7.356 23.8228 7.284 23.6788 7.14C23.5348 6.996 23.4628 6.82 23.4628 6.612C23.4628 6.404 23.5348 6.228 23.6788 6.084C23.8228 5.94 23.9988 5.868 24.2068 5.868C24.4068 5.868 24.5748 5.94 24.7108 6.084C24.8548 6.228 24.9268 6.404 24.9268 6.612C24.9268 6.82 24.8548 6.996 24.7108 7.14C24.5748 7.284 24.4068 7.356 24.2068 7.356ZM24.7348 8.424V15H23.6428V8.424H24.7348ZM27.6879 9.636C27.9039 9.26 28.2239 8.948 28.6479 8.7C29.0799 8.444 29.5799 8.316 30.1479 8.316C30.7319 8.316 31.2599 8.456 31.7319 8.736C32.2119 9.016 32.5879 9.412 32.8599 9.924C33.1319 10.428 33.2679 11.016 33.2679 11.688C33.2679 12.352 33.1319 12.944 32.8599 13.464C32.5879 13.984 32.2119 14.388 31.7319 14.676C31.2599 14.964 30.7319 15.108 30.1479 15.108C29.5879 15.108 29.0919 14.984 28.6599 14.736C28.2359 14.48 27.9119 14.164 27.6879 13.788V18.12H26.5959V8.424H27.6879V9.636ZM32.1519 11.688C32.1519 11.192 32.0519 10.76 31.8519 10.392C31.6519 10.024 31.3799 9.744 31.0359 9.552C30.6999 9.36 30.3279 9.264 29.9199 9.264C29.5199 9.264 29.1479 9.364 28.8039 9.564C28.4679 9.756 28.1959 10.04 27.9879 10.416C27.7879 10.784 27.6879 11.212 27.6879 11.7C27.6879 12.196 27.7879 12.632 27.9879 13.008C28.1959 13.376 28.4679 13.66 28.8039 13.86C29.1479 14.052 29.5199 14.148 29.9199 14.148C30.3279 14.148 30.6999 14.052 31.0359 13.86C31.3799 13.66 31.6519 13.376 31.8519 13.008C32.0519 12.632 32.1519 12.192 32.1519 11.688ZM35.7973 9.636C36.0133 9.26 36.3333 8.948 36.7573 8.7C37.1893 8.444 37.6893 8.316 38.2573 8.316C38.8413 8.316 39.3693 8.456 39.8412 8.736C40.3212 9.016 40.6973 9.412 40.9693 9.924C41.2413 10.428 41.3773 11.016 41.3773 11.688C41.3773 12.352 41.2413 12.944 40.9693 13.464C40.6973 13.984 40.3212 14.388 39.8412 14.676C39.3693 14.964 38.8413 15.108 38.2573 15.108C37.6973 15.108 37.2013 14.984 36.7693 14.736C36.3453 14.48 36.0213 14.164 35.7973 13.788V18.12H34.7053V8.424H35.7973V9.636ZM40.2613 11.688C40.2613 11.192 40.1613 10.76 39.9613 10.392C39.7613 10.024 39.4893 9.744 39.1453 9.552C38.8093 9.36 38.4373 9.264 38.0293 9.264C37.6293 9.264 37.2573 9.364 36.9133 9.564C36.5773 9.756 36.3053 10.04 36.0973 10.416C35.8973 10.784 35.7973 11.212 35.7973 11.7C35.7973 12.196 35.8973 12.632 36.0973 13.008C36.3053 13.376 36.5773 13.66 36.9133 13.86C37.2573 14.052 37.6293 14.148 38.0293 14.148C38.4373 14.148 38.8093 14.052 39.1453 13.86C39.4893 13.66 39.7613 13.376 39.9613 13.008C40.1613 12.632 40.2613 12.192 40.2613 11.688ZM43.3786 7.356C43.1706 7.356 42.9946 7.284 42.8506 7.14C42.7066 6.996 42.6346 6.82 42.6346 6.612C42.6346 6.404 42.7066 6.228 42.8506 6.084C42.9946 5.94 43.1706 5.868 43.3786 5.868C43.5786 5.868 43.7466 5.94 43.8826 6.084C44.0266 6.228 44.0986 6.404 44.0986 6.612C44.0986 6.82 44.0266 6.996 43.8826 7.14C43.7466 7.284 43.5786 7.356 43.3786 7.356ZM43.9066 8.424V15H42.8146V8.424H43.9066ZM48.9718 8.304C49.7718 8.304 50.4198 8.548 50.9158 9.036C51.4118 9.516 51.6598 10.212 51.6598 11.124V15H50.5798V11.28C50.5798 10.624 50.4158 10.124 50.0878 9.78C49.7598 9.428 49.3118 9.252 48.7438 9.252C48.1678 9.252 47.7078 9.432 47.3638 9.792C47.0278 10.152 46.8598 10.676 46.8598 11.364V15H45.7678V8.424H46.8598V9.36C47.0758 9.024 47.3678 8.764 47.7358 8.58C48.1118 8.396 48.5238 8.304 48.9718 8.304ZM56.1555 8.316C56.7235 8.316 57.2195 8.44 57.6435 8.688C58.0755 8.936 58.3955 9.248 58.6035 9.624V8.424H59.7075V15.144C59.7075 15.744 59.5795 16.276 59.3235 16.74C59.0675 17.212 58.6995 17.58 58.2195 17.844C57.7475 18.108 57.1955 18.24 56.5635 18.24C55.6995 18.24 54.9795 18.036 54.4035 17.628C53.8275 17.22 53.4875 16.664 53.3835 15.96H54.4635C54.5835 16.36 54.8315 16.68 55.2075 16.92C55.5835 17.168 56.0355 17.292 56.5635 17.292C57.1635 17.292 57.6515 17.104 58.0275 16.728C58.4115 16.352 58.6035 15.824 58.6035 15.144V13.764C58.3875 14.148 58.0675 14.468 57.6435 14.724C57.2195 14.98 56.7235 15.108 56.1555 15.108C55.5715 15.108 55.0395 14.964 54.5595 14.676C54.0875 14.388 53.7155 13.984 53.4435 13.464C53.1715 12.944 53.0355 12.352 53.0355 11.688C53.0355 11.016 53.1715 10.428 53.4435 9.924C53.7155 9.412 54.0875 9.016 54.5595 8.736C55.0395 8.456 55.5715 8.316 56.1555 8.316ZM58.6035 11.7C58.6035 11.204 58.5035 10.772 58.3035 10.404C58.1035 10.036 57.8315 9.756 57.4875 9.564C57.1515 9.364 56.7795 9.264 56.3715 9.264C55.9635 9.264 55.5915 9.36 55.2555 9.552C54.9195 9.744 54.6515 10.024 54.4515 10.392C54.2515 10.76 54.1515 11.192 54.1515 11.688C54.1515 12.192 54.2515 12.632 54.4515 13.008C54.6515 13.376 54.9195 13.66 55.2555 13.86C55.5915 14.052 55.9635 14.148 56.3715 14.148C56.7795 14.148 57.1515 14.052 57.4875 13.86C57.8315 13.66 58.1035 13.376 58.3035 13.008C58.5035 12.632 58.6035 12.196 58.6035 11.7Z" fill="#0EB6CC"/>
<rect x="0.5" y="0.5" width="68" height="21" rx="5.5" stroke="#B1C5F6"/>
</svg>
