<svg width="60" height="22" viewBox="0 0 60 22" fill="none" xmlns="http://www.w3.org/2000/svg">
<rect x="0.5" y="0.5" width="59" height="21" rx="5.5" fill="#FFF9F2"/>
<path d="M9.992 6.636V11.928C9.992 12.672 10.172 13.224 10.532 13.584C10.9 13.944 11.408 14.124 12.056 14.124C12.696 14.124 13.196 13.944 13.556 13.584C13.924 13.224 14.108 12.672 14.108 11.928V6.636H15.2V11.916C15.2 12.612 15.06 13.2 14.78 13.68C14.5 14.152 14.12 14.504 13.64 14.736C13.168 14.968 12.636 15.084 12.044 15.084C11.452 15.084 10.916 14.968 10.436 14.736C9.964 14.504 9.588 14.152 9.308 13.68C9.036 13.2 8.9 12.612 8.9 11.916V6.636H9.992ZM20.2257 8.304C21.0257 8.304 21.6737 8.548 22.1697 9.036C22.6657 9.516 22.9137 10.212 22.9137 11.124V15H21.8337V11.28C21.8337 10.624 21.6697 10.124 21.3417 9.78C21.0137 9.428 20.5657 9.252 19.9977 9.252C19.4217 9.252 18.9617 9.432 18.6177 9.792C18.2817 10.152 18.1137 10.676 18.1137 11.364V15H17.0217V8.424H18.1137V9.36C18.3297 9.024 18.6217 8.764 18.9897 8.58C19.3657 8.396 19.7777 8.304 20.2257 8.304ZM25.7894 9.636C26.0054 9.26 26.3254 8.948 26.7494 8.7C27.1814 8.444 27.6814 8.316 28.2494 8.316C28.8334 8.316 29.3614 8.456 29.8334 8.736C30.3134 9.016 30.6894 9.412 30.9614 9.924C31.2334 10.428 31.3694 11.016 31.3694 11.688C31.3694 12.352 31.2334 12.944 30.9614 13.464C30.6894 13.984 30.3134 14.388 29.8334 14.676C29.3614 14.964 28.8334 15.108 28.2494 15.108C27.6894 15.108 27.1934 14.984 26.7614 14.736C26.3374 14.48 26.0134 14.164 25.7894 13.788V18.12H24.6974V8.424H25.7894V9.636ZM30.2534 11.688C30.2534 11.192 30.1534 10.76 29.9534 10.392C29.7534 10.024 29.4814 9.744 29.1374 9.552C28.8014 9.36 28.4294 9.264 28.0214 9.264C27.6214 9.264 27.2494 9.364 26.9054 9.564C26.5694 9.756 26.2974 10.04 26.0894 10.416C25.8894 10.784 25.7894 11.212 25.7894 11.7C25.7894 12.196 25.8894 12.632 26.0894 13.008C26.2974 13.376 26.5694 13.66 26.9054 13.86C27.2494 14.052 27.6214 14.148 28.0214 14.148C28.4294 14.148 28.8014 14.052 29.1374 13.86C29.4814 13.66 29.7534 13.376 29.9534 13.008C30.1534 12.632 30.2534 12.192 30.2534 11.688ZM32.3988 11.688C32.3988 11.016 32.5348 10.428 32.8068 9.924C33.0788 9.412 33.4508 9.016 33.9228 8.736C34.4028 8.456 34.9348 8.316 35.5188 8.316C36.0948 8.316 36.5948 8.44 37.0188 8.688C37.4428 8.936 37.7588 9.248 37.9668 9.624V8.424H39.0708V15H37.9668V13.776C37.7508 14.16 37.4268 14.48 36.9948 14.736C36.5708 14.984 36.0748 15.108 35.5068 15.108C34.9228 15.108 34.3948 14.964 33.9228 14.676C33.4508 14.388 33.0788 13.984 32.8068 13.464C32.5348 12.944 32.3988 12.352 32.3988 11.688ZM37.9668 11.7C37.9668 11.204 37.8668 10.772 37.6668 10.404C37.4668 10.036 37.1948 9.756 36.8508 9.564C36.5148 9.364 36.1428 9.264 35.7348 9.264C35.3268 9.264 34.9548 9.36 34.6188 9.552C34.2828 9.744 34.0148 10.024 33.8148 10.392C33.6148 10.76 33.5148 11.192 33.5148 11.688C33.5148 12.192 33.6148 12.632 33.8148 13.008C34.0148 13.376 34.2828 13.66 34.6188 13.86C34.9548 14.052 35.3268 14.148 35.7348 14.148C36.1428 14.148 36.5148 14.052 36.8508 13.86C37.1948 13.66 37.4668 13.376 37.6668 13.008C37.8668 12.632 37.9668 12.196 37.9668 11.7ZM41.4802 7.356C41.2722 7.356 41.0962 7.284 40.9522 7.14C40.8082 6.996 40.7362 6.82 40.7362 6.612C40.7362 6.404 40.8082 6.228 40.9522 6.084C41.0962 5.94 41.2722 5.868 41.4802 5.868C41.6802 5.868 41.8482 5.94 41.9842 6.084C42.1282 6.228 42.2002 6.404 42.2002 6.612C42.2002 6.82 42.1282 6.996 41.9842 7.14C41.8482 7.284 41.6802 7.356 41.4802 7.356ZM42.0082 8.424V15H40.9162V8.424H42.0082ZM43.4613 11.688C43.4613 11.016 43.5973 10.428 43.8693 9.924C44.1413 9.412 44.5133 9.016 44.9853 8.736C45.4653 8.456 46.0013 8.316 46.5933 8.316C47.1053 8.316 47.5813 8.436 48.0213 8.676C48.4613 8.908 48.7973 9.216 49.0293 9.6V6.12H50.1333V15H49.0293V13.764C48.8133 14.156 48.4933 14.48 48.0693 14.736C47.6453 14.984 47.1493 15.108 46.5813 15.108C45.9973 15.108 45.4653 14.964 44.9853 14.676C44.5133 14.388 44.1413 13.984 43.8693 13.464C43.5973 12.944 43.4613 12.352 43.4613 11.688ZM49.0293 11.7C49.0293 11.204 48.9293 10.772 48.7293 10.404C48.5293 10.036 48.2573 9.756 47.9133 9.564C47.5773 9.364 47.2053 9.264 46.7973 9.264C46.3893 9.264 46.0173 9.36 45.6813 9.552C45.3453 9.744 45.0773 10.024 44.8773 10.392C44.6773 10.76 44.5773 11.192 44.5773 11.688C44.5773 12.192 44.6773 12.632 44.8773 13.008C45.0773 13.376 45.3453 13.66 45.6813 13.86C46.0173 14.052 46.3893 14.148 46.7973 14.148C47.2053 14.148 47.5773 14.052 47.9133 13.86C48.2573 13.66 48.5293 13.376 48.7293 13.008C48.9293 12.632 49.0293 12.196 49.0293 11.7Z" fill="#EB9525"/>
<rect x="0.5" y="0.5" width="59" height="21" rx="5.5" stroke="#EECEB0"/>
</svg>
